<svg id="visual" viewBox="0 0 2140 1260" width="2140" height="1260" xmlns="http://www.w3.org/2000/svg" xmlns:xlink="http://www.w3.org/1999/xlink" version="1.1"><rect x="0" y="0" width="2140" height="1260" fill="#001220"></rect><defs><linearGradient id="grad1_0" x1="41.1%" y1="0%" x2="100%" y2="100%"><stop offset="16.03174603174603%" stop-color="#fbae3c" stop-opacity="1"></stop><stop offset="83.96825396825398%" stop-color="#fbae3c" stop-opacity="1"></stop></linearGradient></defs><defs><linearGradient id="grad1_1" x1="41.1%" y1="0%" x2="100%" y2="100%"><stop offset="16.03174603174603%" stop-color="#fbae3c" stop-opacity="1"></stop><stop offset="83.96825396825398%" stop-color="#f48350" stop-opacity="1"></stop></linearGradient></defs><defs><linearGradient id="grad1_2" x1="41.1%" y1="0%" x2="100%" y2="100%"><stop offset="16.03174603174603%" stop-color="#d96162" stop-opacity="1"></stop><stop offset="83.96825396825398%" stop-color="#f48350" stop-opacity="1"></stop></linearGradient></defs><defs><linearGradient id="grad1_3" x1="41.1%" y1="0%" x2="100%" y2="100%"><stop offset="16.03174603174603%" stop-color="#d96162" stop-opacity="1"></stop><stop offset="83.96825396825398%" stop-color="#af4b6d" stop-opacity="1"></stop></linearGradient></defs><defs><linearGradient id="grad1_4" x1="41.1%" y1="0%" x2="100%" y2="100%"><stop offset="16.03174603174603%" stop-color="#7c3e6b" stop-opacity="1"></stop><stop offset="83.96825396825398%" stop-color="#af4b6d" stop-opacity="1"></stop></linearGradient></defs><defs><linearGradient id="grad1_5" x1="41.1%" y1="0%" x2="100%" y2="100%"><stop offset="16.03174603174603%" stop-color="#7c3e6b" stop-opacity="1"></stop><stop offset="83.96825396825398%" stop-color="#49335c" stop-opacity="1"></stop></linearGradient></defs><defs><linearGradient id="grad1_6" x1="41.1%" y1="0%" x2="100%" y2="100%"><stop offset="16.03174603174603%" stop-color="#1d2540" stop-opacity="1"></stop><stop offset="83.96825396825398%" stop-color="#49335c" stop-opacity="1"></stop></linearGradient></defs><defs><linearGradient id="grad1_7" x1="41.1%" y1="0%" x2="100%" y2="100%"><stop offset="16.03174603174603%" stop-color="#1d2540" stop-opacity="1"></stop><stop offset="83.96825396825398%" stop-color="#001220" stop-opacity="1"></stop></linearGradient></defs><defs><linearGradient id="grad2_0" x1="0%" y1="0%" x2="58.9%" y2="100%"><stop offset="16.03174603174603%" stop-color="#fbae3c" stop-opacity="1"></stop><stop offset="83.96825396825398%" stop-color="#fbae3c" stop-opacity="1"></stop></linearGradient></defs><defs><linearGradient id="grad2_1" x1="0%" y1="0%" x2="58.9%" y2="100%"><stop offset="16.03174603174603%" stop-color="#f48350" stop-opacity="1"></stop><stop offset="83.96825396825398%" stop-color="#fbae3c" stop-opacity="1"></stop></linearGradient></defs><defs><linearGradient id="grad2_2" x1="0%" y1="0%" x2="58.9%" y2="100%"><stop offset="16.03174603174603%" stop-color="#f48350" stop-opacity="1"></stop><stop offset="83.96825396825398%" stop-color="#d96162" stop-opacity="1"></stop></linearGradient></defs><defs><linearGradient id="grad2_3" x1="0%" y1="0%" x2="58.9%" y2="100%"><stop offset="16.03174603174603%" stop-color="#af4b6d" stop-opacity="1"></stop><stop offset="83.96825396825398%" stop-color="#d96162" stop-opacity="1"></stop></linearGradient></defs><defs><linearGradient id="grad2_4" x1="0%" y1="0%" x2="58.9%" y2="100%"><stop offset="16.03174603174603%" stop-color="#af4b6d" stop-opacity="1"></stop><stop offset="83.96825396825398%" stop-color="#7c3e6b" stop-opacity="1"></stop></linearGradient></defs><defs><linearGradient id="grad2_5" x1="0%" y1="0%" x2="58.9%" y2="100%"><stop offset="16.03174603174603%" stop-color="#49335c" stop-opacity="1"></stop><stop offset="83.96825396825398%" stop-color="#7c3e6b" stop-opacity="1"></stop></linearGradient></defs><defs><linearGradient id="grad2_6" x1="0%" y1="0%" x2="58.9%" y2="100%"><stop offset="16.03174603174603%" stop-color="#49335c" stop-opacity="1"></stop><stop offset="83.96825396825398%" stop-color="#1d2540" stop-opacity="1"></stop></linearGradient></defs><defs><linearGradient id="grad2_7" x1="0%" y1="0%" x2="58.9%" y2="100%"><stop offset="16.03174603174603%" stop-color="#001220" stop-opacity="1"></stop><stop offset="83.96825396825398%" stop-color="#1d2540" stop-opacity="1"></stop></linearGradient></defs><g transform="translate(2140, 0)"><path d="M0 993.4C-112.4 995.1 -224.8 996.8 -307 944.7C-389.1 892.7 -441.1 786.8 -521.4 717.6C-601.6 648.4 -710.2 615.9 -743.5 540.2C-776.7 464.4 -734.6 345.4 -763.7 248.1C-792.8 150.9 -893.1 75.4 -993.4 0L0 0Z" fill="#0c1c30"></path><path d="M0 869.2C-98.3 870.7 -196.7 872.2 -268.6 826.6C-340.5 781.1 -386 688.4 -456.2 627.9C-526.4 567.4 -621.5 538.9 -650.6 472.7C-679.6 406.4 -642.8 302.2 -668.2 217.1C-693.7 132 -781.4 66 -869.2 0L0 0Z" fill="#312c4f"></path><path d="M0 745C-84.3 746.3 -168.6 747.6 -230.2 708.6C-291.9 669.5 -330.8 590.1 -391 538.2C-451.2 486.3 -532.7 461.9 -557.6 405.1C-582.5 348.3 -551 259 -572.8 186.1C-594.6 113.2 -669.8 56.6 -745 0L0 0Z" fill="#623965"></path><path d="M0 620.8C-70.2 621.9 -140.5 623 -191.9 590.5C-243.2 557.9 -275.7 491.7 -325.9 448.5C-376 405.3 -443.9 385 -464.7 337.6C-485.5 290.3 -459.1 215.9 -477.3 155.1C-495.5 94.3 -558.2 47.2 -620.8 0L0 0Z" fill="#96446e"></path><path d="M0 496.7C-56.2 497.5 -112.4 498.4 -153.5 472.4C-194.6 446.3 -220.5 393.4 -260.7 358.8C-300.8 324.2 -355.1 308 -371.7 270.1C-388.4 232.2 -367.3 172.7 -381.8 124.1C-396.4 75.4 -446.5 37.7 -496.7 0L0 0Z" fill="#c55469"></path><path d="M0 372.5C-42.1 373.2 -84.3 373.8 -115.1 354.3C-145.9 334.7 -165.4 295 -195.5 269.1C-225.6 243.2 -266.3 231 -278.8 202.6C-291.3 174.2 -275.5 129.5 -286.4 93.1C-297.3 56.6 -334.9 28.3 -372.5 0L0 0Z" fill="#e9705a"></path><path d="M0 248.3C-28.1 248.8 -56.2 249.2 -76.7 236.2C-97.3 223.2 -110.3 196.7 -130.3 179.4C-150.4 162.1 -177.6 154 -185.9 135C-194.2 116.1 -183.7 86.3 -190.9 62C-198.2 37.7 -223.3 18.9 -248.3 0L0 0Z" fill="#fa9845"></path><path d="M0 124.2C-14 124.4 -28.1 124.6 -38.4 118.1C-48.6 111.6 -55.1 98.3 -65.2 89.7C-75.2 81.1 -88.8 77 -92.9 67.5C-97.1 58.1 -91.8 43.2 -95.5 31C-99.1 18.9 -111.6 9.4 -124.2 0L0 0Z" fill="#fbae3c"></path></g><g transform="translate(0, 1260)"><path d="M0 -993.4C99.4 -966.6 198.7 -939.9 296 -911.1C393.4 -882.4 488.7 -851.6 581.3 -800.1C674 -748.6 764 -676.3 803.6 -583.9C843.3 -491.4 832.7 -378.8 856 -278.1C879.2 -177.4 936.3 -88.7 993.4 0L0 0Z" fill="#0c1c30"></path><path d="M0 -869.2C86.9 -845.8 173.9 -822.4 259 -797.2C344.2 -772.1 427.6 -745.2 508.7 -700.1C589.7 -655 668.5 -591.8 703.2 -510.9C737.9 -430 728.6 -331.4 749 -243.4C769.3 -155.3 819.2 -77.6 869.2 0L0 0Z" fill="#312c4f"></path><path d="M0 -745C74.5 -725 149 -704.9 222 -683.3C295 -661.8 366.5 -638.7 436 -600.1C505.5 -561.5 573 -507.2 602.7 -437.9C632.5 -368.6 624.5 -284.1 642 -208.6C659.4 -133.1 702.2 -66.5 745 0L0 0Z" fill="#623965"></path><path d="M0 -620.8C62.1 -604.1 124.2 -587.4 185 -569.4C245.9 -551.5 305.4 -532.3 363.3 -500.1C421.2 -467.9 477.5 -422.7 502.3 -364.9C527.1 -307.1 520.4 -236.7 535 -173.8C549.5 -110.9 585.2 -55.4 620.8 0L0 0Z" fill="#96446e"></path><path d="M0 -496.7C49.7 -483.3 99.4 -469.9 148 -455.6C196.7 -441.2 244.3 -425.8 290.7 -400.1C337 -374.3 382 -338.2 401.8 -291.9C421.7 -245.7 416.4 -189.4 428 -139.1C439.6 -88.7 468.1 -44.4 496.7 0L0 0Z" fill="#c55469"></path><path d="M0 -372.5C37.3 -362.5 74.5 -352.4 111 -341.7C147.5 -330.9 183.3 -319.4 218 -300C252.7 -280.7 286.5 -253.6 301.4 -219C316.2 -184.3 312.3 -142 321 -104.3C329.7 -66.5 351.1 -33.3 372.5 0L0 0Z" fill="#e9705a"></path><path d="M0 -248.3C24.8 -241.7 49.7 -235 74 -227.8C98.3 -220.6 122.2 -212.9 145.3 -200C168.5 -187.2 191 -169.1 200.9 -146C210.8 -122.9 208.2 -94.7 214 -69.5C219.8 -44.4 234.1 -22.2 248.3 0L0 0Z" fill="#fa9845"></path><path d="M0 -124.2C12.4 -120.8 24.8 -117.5 37 -113.9C49.2 -110.3 61.1 -106.5 72.7 -100C84.2 -93.6 95.5 -84.5 100.5 -73C105.4 -61.4 104.1 -47.3 107 -34.8C109.9 -22.2 117 -11.1 124.2 0L0 0Z" fill="#fbae3c"></path></g></svg>